<?xml version="1.0" encoding="utf-8"?>
<!-- Svg Vector Icons : http://www.onlinewebfonts.com/icon -->
<!DOCTYPE svg PUBLIC "-//W3C//DTD SVG 1.1//EN" "http://www.w3.org/Graphics/SVG/1.1/DTD/svg11.dtd">
<svg version="1.1" xmlns="http://www.w3.org/2000/svg" xmlns:xlink="http://www.w3.org/1999/xlink" x="0px" y="0px" viewBox="0 0 1000 1000" enable-background="new 0 0 1000 1000" xml:space="preserve">
<metadata> Svg Vector Icons : http://www.onlinewebfonts.com/icon </metadata>
<g><g><g id="Layer_8_36_"><path d="M514.5,387.8c-92.6,0-167.7,75.1-167.7,167.7c0,92.7,75.1,167.7,167.7,167.7c92.7,0,167.7-75.1,167.7-167.7C682.3,462.9,607.2,387.8,514.5,387.8z M514.5,634.8c-43.7,0-79.2-35.5-79.2-79.2c0-43.7,35.4-79.2,79.2-79.2c43.7,0,79.2,35.4,79.2,79.2C593.7,599.3,558.2,634.8,514.5,634.8z M574.2,567.5c-6.4,26.4-21.8,45.3-34.4,42.3c-4.3-1-7.6-4.5-10-9.5c11.3-2.5,23.4-19.6,28.9-42.3c4.2-17.5,3.4-33.9-1.2-43.8c1.8-0.4,3.7-0.5,5.5,0C575.6,517.2,580.6,541.1,574.2,567.5z M174,737.4c-13.6,13-14,34.5-1,48c13,13.5,34.5,14,48,1c13.5-13,14-34.5,1-48C209,724.9,187.5,724.5,174,737.4z M206.6,774.2c-6,5.8-15.6,5.6-21.3-0.5c-5.8-6-5.6-15.6,0.5-21.3c6-5.8,15.6-5.6,21.3,0.5C212.8,758.8,212.6,768.4,206.6,774.2z M973.2,285.8h-18.4v-23.5c0-7.4-6-13.4-13.4-13.4H647.7l-11.5-101.8c0-7.4-6-13.4-13.4-13.4H378.1c-7.4,0-13.4,6-13.4,13.4l-11.6,101.8H208.3v-23.5h-83.9v23.5H59.5c-7.4,0-13.4,6-13.4,13.4v23.5H26.8c-7.7,0-16.8,2-16.8,7.7V320c0,5.7,9,7.7,16.8,7.7h19.3v525.1c0,7.4,6,13.4,13.4,13.4h881.9c7.4,0,13.4-6,13.4-13.4V327.7h18.5c7.8,0,16.8-2,16.8-7.7v-26.5C990,287.8,981,285.8,973.2,285.8z M46.1,321H26.8c-5.3,0-8.9-1-10.1-1.8v-24.9c1.2-0.7,4.8-1.8,10.1-1.8h19.3L46.1,321L46.1,321z M393.1,158.3h216.4V212H393.1V158.3z M285.4,682.3l-41.5,95.9c-0.4,1.1-0.9,2.2-1.4,3.2l-1.8,4.2c-0.5,1.2-1.3,2.4-2.3,3.3c-0.2,0.2-0.5,0.3-0.7,0.5c-1.6,2.2-3.4,4.3-5.4,6.2c-19.3,18.5-50,17.9-68.5-1.4c-18.5-19.3-17.9-50,1.4-68.5c1.9-1.8,4-3.4,6.1-4.9c0.7-0.7,1.5-1.4,2.5-1.9l97.7-49.6c3.8-1.9,8.4-1.3,11.5,1.6C286.2,674,287.1,678.4,285.4,682.3z M514.1,776.8c-121.1,0-219.2-98.1-219.2-219.2c0-121.1,98.1-219.2,219.2-219.2c121,0,219.2,98.1,219.2,219.2C733.3,678.7,635.2,776.8,514.1,776.8z M837.3,373.1c-21.3,0-38.6-17.3-38.6-38.6c0-21.3,17.3-38.6,38.6-38.6c21.3,0,38.6,17.3,38.6,38.6C875.9,355.8,858.6,373.1,837.3,373.1z M983.3,319.2c-1.2,0.7-4.8,1.8-10.1,1.8h-18.5v-28.4h18.5c5.3,0,8.9,1,10.1,1.8V319.2z"/></g></g><g></g><g></g><g></g><g></g><g></g><g></g><g></g><g></g><g></g><g></g><g></g><g></g><g></g><g></g><g></g></g>
</svg>