<?xml version="1.0" standalone="no"?>
<!DOCTYPE svg PUBLIC "-//W3C//DTD SVG 20010904//EN"
 "http://www.w3.org/TR/2001/REC-SVG-20010904/DTD/svg10.dtd">
<svg version="1.0" xmlns="http://www.w3.org/2000/svg"
 width="300.000000pt" height="300.000000pt" viewBox="0 0 300.000000 300.000000"
 preserveAspectRatio="xMidYMid meet">
<metadata>
Created by potrace 1.15, written by Peter Selinger 2001-2017
</metadata>
<g transform="translate(0.000000,300.000000) scale(0.100000,-0.100000)"
fill="#000000" stroke="none">
<path d="M1660 2632 c-32 -11 -1105 -513 -1127 -527 -13 -9 -23 -25 -23 -38 0
-23 135 -323 154 -343 6 -7 81 -38 166 -69 85 -32 157 -59 159 -61 2 -2 -26
-72 -62 -155 l-67 -151 23 -44 23 -45 138 333 c192 460 187 450 252 518 142
149 324 212 523 181 40 -6 75 -10 78 -8 2 2 -38 93 -89 202 -93 197 -109 220
-148 207z"/>
<path d="M1655 1877 c-55 -22 -90 -45 -122 -79 -32 -33 -42 -56 -293 -663 -45
-110 -96 -233 -112 -272 l-31 -73 21 -48 c11 -26 54 -118 96 -205 89 -186 81
-182 225 -112 50 25 94 45 96 45 2 0 65 29 140 65 75 36 138 65 140 65 2 0 56
25 121 56 66 31 211 99 324 151 113 53 211 100 218 105 6 6 12 19 12 29 0 20
-171 398 -180 399 -3 0 -18 -25 -33 -55 -35 -66 -136 -168 -210 -213 -30 -18
-88 -45 -129 -59 -154 -55 -403 -22 -598 77 l-38 20 45 107 c24 60 52 127 61
151 19 49 12 49 132 -4 73 -32 97 -38 180 -42 109 -5 156 9 221 66 58 51 83
114 83 207 1 132 -52 219 -163 268 -55 24 -164 32 -206 14z"/>
</g>
  
</svg>
