<?xml version="1.0" encoding="UTF-8"?>
<svg width="24px" height="24px" fill="#ffffff" viewBox="0 0 242 348" version="1.1" xmlns="http://www.w3.org/2000/svg" xmlns:xlink="http://www.w3.org/1999/xlink">
    <!-- Generator: Sketch 48.2 (47327) - http://www.bohemiancoding.com/sketch -->
    <title>Vending</title>
    <desc>Created with Sketch.</desc>
    <defs>
        <rect id="path-1" x="188" y="51" width="16" height="32" rx="5"></rect>
        <rect id="path-2" x="188" y="110" width="16" height="32" rx="5"></rect>
    </defs>
    <g id="iPhone-8" stroke="none" stroke-width="1" fill="#FFFFFF" fill-rule="evenodd" transform="translate(-127.000000, -87.000000)">
        <g id="Vending" transform="translate(127.000000, 87.000000)">
            <rect id="Rectangle" stroke="#000000" stroke-width="10" x="5" y="5" width="232" height="338" rx="5"></rect>
            <path d="M6,49.5 L151,49.5" id="Line" stroke="#000000" stroke-width="10" stroke-linecap="square"></path>
            <rect id="Rectangle-4" fill="#000000" x="2" y="249" width="157" height="11" rx="5"></rect>
            <rect id="Rectangle-4" fill="#000000" transform="translate(155.500000, 132.500000) rotate(90.000000) translate(-155.500000, -132.500000) " x="28" y="127" width="255" height="11" rx="5"></rect>
            <path d="M9,99.5 L148.5,99.5" id="Line" stroke="#000000" stroke-width="10" stroke-linecap="square"></path>
            <path d="M10.5,152.5 L151,152.5" id="Line" stroke="#000000" stroke-width="10" stroke-linecap="square"></path>
            <path d="M8.5,201.5 L149.5,201.5" id="Line" stroke="#000000" stroke-width="10" stroke-linecap="square"></path>
            <g id="Rectangle-2">
                <use fill="#000000" fill-rule="evenodd" xlink:href="#path-1"></use>
                <rect stroke="#000000" stroke-width="1" x="188.5" y="51.5" width="15" height="31" rx="5"></rect>
            </g>
            <g id="Rectangle-3">
                <use fill="#000000" fill-rule="evenodd" xlink:href="#path-2"></use>
                <rect stroke="#000000" stroke-width="1" x="188.5" y="110.5" width="15" height="31" rx="5"></rect>
            </g>
            <rect id="Rectangle-5" stroke="#000000" stroke-width="10" x="67" y="289" width="83" height="20" rx="5"></rect>
        </g>
    </g>
</svg>